<svg width="810" height="815" viewBox="0 0 810 815" fill="none" xmlns="http://www.w3.org/2000/svg">
<g filter="url(#filter0_f_25_1190)">
<path fill-rule="evenodd" clip-rule="evenodd" d="M284.809 161.515C341.846 117.089 409.952 70.1046 481.195 82.826C552.3 95.5228 603.495 161.249 638.394 224.653C667.796 278.071 642.926 342.73 656.913 402.069C672.874 469.785 749.212 528.569 725.415 593.834C702.025 657.98 614.812 666.416 551.395 691.449C494.195 714.027 437.492 730.735 375.97 731.77C301.663 733.021 218.58 745.247 161.004 698.019C102.074 649.68 76.2051 565.777 80.8912 489.723C85.1897 419.958 147.845 373.066 184.678 313.783C217.544 260.886 235.715 199.755 284.809 161.515Z" fill="url(#paint0_linear_25_1190)" fill-opacity="0.8"/>
</g>
<defs>
<filter id="filter0_f_25_1190" x="0.353287" y="0.710815" width="809.62" height="813.391" filterUnits="userSpaceOnUse" color-interpolation-filters="sRGB">
<feFlood flood-opacity="0" result="BackgroundImageFix"/>
<feBlend mode="normal" in="SourceGraphic" in2="BackgroundImageFix" result="shape"/>
<feGaussianBlur stdDeviation="40" result="effect1_foregroundBlur_25_1190"/>
</filter>
<linearGradient id="paint0_linear_25_1190" x1="243.013" y1="168.402" x2="522.537" y2="724.055" gradientUnits="userSpaceOnUse">
<stop/>
<stop offset="1" stop-opacity="0"/>
</linearGradient>
</defs>
</svg>
